<svg xmlns="http://www.w3.org/2000/svg" height="1083.693" width="1423.187"><path d="M1423.187 0H0v1083.693h1423.187V0" fill="#A9ABAC"/><path d="M769.825 575.807l.647-34.495-51.148-55.824 10.223 67.384 57.302 55.837-17.024-32.902" fill="#938fd0"/><path d="M742.021 636.71l-56.569-85.277-2.308 48.754 59.303 39.329-.426-2.805" fill="#8791d1"/><path d="M736.524 600.187l-51.072-48.754 56.57 85.278z" fill="#efa3d6"/><path d="M742.447 639.516l39.965 34.65 14.81-8.18-60.698-65.8 5.497 36.525.426 2.805" fill="#ada6da"/><path d="M816.204 584.135l69.087 43.706-7.442-17.66-.93-.752-63.027-53.868 36.183 49.164-33.871-20.59" fill="#b59dd5"/><path d="M850.075 604.725l-36.183-49.164 2.312 28.574z" fill="#8480c8"/><path d="M786.85 608.71l46.737 48.266-17.383-72.841-45.732-42.823-.647 34.495 17.024 32.902" fill="#aba5da"/><path d="M797.221 665.987l-10.372-57.278-57.302-55.837 6.977 47.315 60.697 65.8" fill="#9e9bd5"/><path d="M685.452 551.433l51.072 48.754-6.977-47.315L684.71 490.3v15.403l.741 45.73" fill="#7079c4"/><path d="M588.493 792.58l-2.993-21.913-52.517-29.272z" fill="#8f89c7"/><path d="M532.983 741.395l52.517 29.272-19.905-12.779-24.478-17.317-8.134.824" fill="#6f80bd"/><path d="M877.85 610.181l7.44 17.66 63.65 40.076z" fill="#4f7cbc"/><path d="M565.595 757.888l36.966-34.636-61.444 17.319z" fill="#3664ac"/><path d="M658.07 731.453l1.393-30.805 7.486-73.319-51.07 130.559 42.192-26.435" fill="#7a5ea1"/><path d="M683.144 600.187l2.308-48.754-.741-45.73V490.3l-17.027-17.33v116.967l15.46 10.25" fill="#838bce"/><path d="M626.985 774.472l22.94 14.947 12.587-3.095-4.441-54.87-31.086 43.018" fill="#4e65a7"/><path d="M615.879 757.888l11.106 16.584 31.086-43.019z" fill="#936c97"/><path d="M813.892 555.561l-43.42-14.249 45.732 42.823z" fill="#958ecf"/><path d="M984.747 693.425h11.305l-13.065-15.401z" fill="#8d95d3"/><path d="M996.052 693.425h34.296l-47.361-15.401z" fill="#717fc8"/><path d="M1004.803 588.408l11.189-10.968-.996-17.841-.056-.998-20.108 38.966 9.97-9.159" fill="#aea6da"/><path d="M984.256 491.925l-30.259 21.394 39.46-.755z" fill="#d3a0d5"/><path d="M950.416 560.767l1.3-31.936-31.21 44.26 21.775-11.314 8.135-1.01" fill="#ef98be"/><path d="M876.919 609.43l-57.99-93.262-1.38-1.299-3.657 40.692 63.027 53.868" fill="#9378bf"/><path d="M904.168 582.47l11.103-6.663 5.234-2.716 33.492-59.772-80.914 85.556 18.132-9.42 12.953-6.984" fill="#f5a0cc"/><path d="M808.313 690.647l39.227 29.658 51.067-32.941-50.319-22.857-14.701-7.531-8.504 10.416-16.77 23.255" fill="#3f6bab"/><path d="M948.94 667.917l34.047 10.107 47.361 15.401 17.772 2.404 10.677-83.742-25.469-20.607-17.336-14.04-11.19 10.968-9.97 9.159-28.127 24.617-17.765-11.068v-15.644l-22.203 2.095-22.569 5.364-12.953-13.476-18.132 9.42 4.766 11.306 71.091 57.736" fill="#4378bc"/><path d="M993.457 512.564l-39.46.755-2.281 15.512z" fill="#d0a0d6"/><path d="M942.281 561.777l-21.776 11.314-5.234 2.716-11.103 6.664-12.953 6.984 12.953 13.476 22.57-5.364 22.202-2.095 1.476-34.705-8.135 1.01" fill="#978dce"/><path d="M898.607 687.364l50.333-19.447-63.65-40.076-69.086-43.706 17.383 72.841 14.701 7.53 50.319 22.858" fill="#aba2d8"/><path d="M950.416 560.767l-1.476 34.705v15.644l17.765 11.068 28.127-24.617 20.108-38.966-14.233-29.77-7.25-16.267-41.741 16.267-1.3 31.936" fill="#b8a8da"/><path d="M507.452 556.724l-50.33 59.925L510 635.167z" fill="#bd9fd6"/><path d="M541.117 740.57l-42.006-28.126-13.136-1.69-12.302 8.54 67.444 21.277" fill="#aaa4d3"/><path d="M551.49 693.425l5.922-9.7-33.43-12.294-13.202 21.994-7.89 13.402-3.78 5.617 52.38-19.019" fill="#3c6bb2"/><path d="M485.975 710.753l-3.382-1.198-93.745-18.908 84.825 28.648 12.302-8.542" fill="#4d81af"/><path d="M491.081 658.832l-51.854-20.839 71.553 55.432 13.201-21.994-32.9-12.599" fill="#2e5ba2"/><path d="M457.121 616.65l-50.11 7.069 32.216 14.274zM402.26 560.977l-30.77 47.002 33.778 14.966z" fill="#91a7dc"/><path d="M491.081 658.832L510 635.167l-52.879-18.518-17.894 21.344 51.854 20.839" fill="#67659a"/><path d="M407.01 623.719l-1.694.238-.048-1.012-33.779-14.966-.477.73 139.768 84.716-71.553-55.432-32.216-14.274" fill="#8386c5"/><path d="M482.593 709.555l3.382 1.198 13.136 1.691 3.778-5.617-103.866-38.431 87.529 41.957-3.959-.798" fill="#837cba"/><path d="M240.19 763.928l20.591 14.324 21.434-3.78-81.548-50.25 4.012 15.535 35.512 24.171" fill="#aba7db"/><path d="M232.096 793.696h53.681l-24.996-15.444-20.59-14.324-8.095 29.768" fill="#3e6dab"/><path d="M351.341 804.27l-69.126-29.798-1.994-18.695-79.554-31.554 81.548 50.249-21.434 3.78 24.996 15.444 43.214 26.403 22.35-15.828" fill="#b0abdc"/><path d="M326.336 749.959l7.995-76.978 64.692-4.585-50.33-33.333-73.882-.076 12.113 37.994-6.703 82.796 46.115-5.818" fill="#4070ab"/><path d="M388.848 690.647l10.175-22.251-64.692 4.585z" fill="#4a7eb1"/><path d="M280.221 755.777l44 29.779 2.115-35.597-46.115 5.818 6.703-82.796-93.813 3.88 7.556 47.362 79.554 31.554" fill="#a9aadd"/><path d="M482.593 709.555l3.959.798-87.53-41.957-10.174 22.25 93.745 18.909" fill="#4b7cac"/><path d="M172.944 739.972l3.717 36.215 63.53-12.259-35.512-24.17-4.012-15.535-7.556-47.362-3.556-20.222-3.356-21.974-13.255 105.307" fill="#3663a9"/><path d="M649.925 611.116l10.087-69.27-12.304 32.206-4.297 10.792-46.22 111.472 31.277-25.628 21.457-59.572" fill="#b3639b"/><path d="M535.75 652.743l-11.769 18.688 33.431 12.294 48.253-79.828-69.914 48.846" fill="#7e7c9a"/><path d="M602.561 723.252l15.91-12.741 48.478-83.182-17.024-16.213-21.457 59.572-31.277 25.628-39.779-12.59-5.923 9.7-10.372 47.145 61.444-17.319" fill="#3866ad"/><path d="M553.488 623.077l-62.407 35.755 32.9 12.599 11.77-18.688 17.737-29.666" fill="#4d609d"/><path d="M280.221 755.777l1.994 18.695 69.126 29.799-27.12-18.715-44-29.779" fill="#a6a4d9"/><path d="M551.49 693.425l-52.38 19.019 42.007 28.127z" fill="#335fa2"/><path d="M388.848 690.647l-54.517-17.666-7.995 76.978 147.337-30.664-84.825-28.648" fill="#477cb0"/><path d="M535.75 652.743l69.915-48.846-13.472-11.429H572.26l-8.925 14.496-9.847 16.113-17.737 29.666M605.665 603.897l-48.253 79.828 39.779 12.591z" fill="#a56d93"/><path d="M597.19 696.316l46.22-111.472-27.531-3.573-10.214 22.626-8.474 92.419" fill="#8d649f"/><path d="M615.879 581.27l-23.686 11.198 13.472 11.43z" fill="#88749a"/><path d="M367.052 814.912l-15.71-10.641-22.351 15.828 43.385 49.17 64.735-6.825-70.059-47.532" fill="#4a7eb1"/><path d="M491.081 658.832l62.407-35.755 9.847-16.113L510 635.167l-18.919 23.665" fill="#a5aadc"/><path d="M666.95 627.33l-4.438-34.166-2.5-51.317-10.087 69.269 17.024 16.213" fill="#5f63aa"/><path d="M647.708 574.052l12.304-32.205 2.5 51.317 4.437 34.165.735-37.392V472.971l-51.805 108.3 27.532 3.573 4.297-10.792" fill="#f4a9d8"/><path d="M559.265 573.077l-51.813-16.353L510 635.167z" fill="#939cd6"/><path d="M160.139 741.395l-27.417 33.077-10.629 46.81 26.656-23.54 11.39-56.347" fill="#2d5eac"/><path d="M0 789.648v79.621l13.993-90.288z" fill="#5d629d"/><path d="M133.863 886.36l16.661-5.528-1.775-83.09z" fill="#396aab"/><path d="M58.158 647.084L0 683.151l21.422 49.054z" fill="#7661a1"/><path d="M0 683.15v60.094l21.422-11.039L0 683.151" fill="#a5a9dc"/><path d="M21.422 732.205L0 743.244v46.404l13.993-10.667 7.43-46.776" fill="#8268a0"/><path d="M41.918 720.708l10.673-43.847 67.107-67.885-61.54 38.108-36.736 85.121 20.496-11.497" fill="#fbdef0"/><path d="M582.41 543.959l-9.269-17.506-2.402 2.111-13.327 12.273 1.853 32.24 23.144-29.118" fill="#7e93d3"/><path d="M607.735 496.077l-34.594 30.376 38.667-20.75z" fill="#b48acc"/><path d="M172.944 739.972l13.255-105.307-21.471 77.083-4.59 29.647 12.806-1.423" fill="#786b95"/><path d="M557.412 540.837l13.327-12.273-29.672-15.377-17.011 21.037 33.356 6.613" fill="#a1a1d8"/><path d="M628.601 485.84l-20.866 10.237 4.073 9.626z" fill="#8d79c1"/><path d="M88.297 721.388l31.036 52.819-7.058-59.746-59.684-37.6-10.673 43.847 33.696-18.717 12.683 19.397" fill="#a5a9dc"/><path d="M41.918 720.708l-20.496 11.497-7.43 46.776 59.34-48.254 2.282-28.736-33.696 18.717" fill="#4b71ac"/><path d="M112.275 714.461l7.058 59.746 13.389.265 27.417-33.077-47.864-26.934" fill="#a098d4"/><path d="M112.275 695.661l-59.684-18.8 59.684 37.6z" fill="#b0abdc"/><path d="M179.313 571.883l-59.615 37.093-7.423 86.685 47.864 45.734 4.589-29.647 21.47-77.083 9.918-18.016-16.803-44.766" fill="#ada3d9"/><path d="M112.275 695.661l7.423-86.685-67.107 67.885z" fill="#989dd6"/><path d="M119.333 774.207l-31.036-52.819-12.683-19.397-2.282 28.736-10.02 143.265 58.781-52.71 10.629-46.81-13.39-.265" fill="#315f9d"/><path d="M557.412 540.837l-33.356-6.613-16.604 22.5 51.813 16.353-1.853-32.24" fill="#9898d4"/><path d="M719.324 485.488l-39.05-36.343-13.325-11.553 62.598 115.28-10.223-67.384" fill="#707ac5"/><path d="M286.924 672.981l-54.059-51.637-39.754 55.517z" fill="#959ad5"/><path d="M262.283 584.275l-29.418 37.069 41.942 13.643z" fill="#8e6e99"/><path d="M232.865 621.344l-53.552-49.461 16.803 44.766z" fill="#9189cc"/><path d="M432.967 747.293l-65.915 67.619 70.059 47.532-4.144-115.15" fill="#4d7cb4"/><path d="M186.199 634.665l3.356 21.974 3.556 20.222 39.754-55.517-36.749-4.695-9.917 18.016" fill="#91a3da"/><path d="M277.272 565.388l-14.99 18.887 12.525 50.712z" fill="#fbdef0"/><path d="M628.601 485.84L637 474.833l-43.785-30.581 14.52 51.825L628.6 485.84" fill="#a79ed6"/><path d="M573.141 526.453l34.594-30.376-14.52-51.825-33.95 46.048 11.474 38.264 2.402-2.11" fill="#f5e1f2"/><path d="M559.265 490.3l-18.198 22.887 29.672 15.377z" fill="#a3a7db"/><path d="M667.684 472.97l-.735-35.378L637 474.833l-21.121 106.438 51.805-108.3" fill="#e184c5"/><path d="M592.193 592.468l23.686-11.197L637 474.833l-21.121 73.711-23.686 43.924" fill="#847a9f"/><path d="M611.808 505.703l-38.667 20.75 9.268 17.506-23.144 29.118 4.07 33.887 8.925-14.496L637 474.833l-8.399 11.007-16.793 19.863" fill="#f4a9d8"/><path d="M684.71 490.3l44.837 62.572-62.598-115.28.735 35.379 17.027 17.329" fill="#5c6abc"/><path d="M510.78 693.425L371.012 608.71l-7.147-4.333 139.024 102.45 7.891-13.4" fill="#b19fd6"/><path d="M274.81 634.987l73.883.076-71.421-69.675-2.465 69.599h.004" fill="#b0abdc"/><path d="M371.49 607.979l-7.625-3.603 7.147 4.333z" fill="#ada8db"/><path d="M402.26 560.977l3.008 61.968.048 1.012 51.805-65.308v-59.684l-93.256 105.411 7.624 3.603 30.771-47.002" fill="#fbdef0"/><path d="M541.067 513.187l-58.639-41.406 41.628 62.443z" fill="#c4ccec"/><path d="M482.428 471.781l-25.307 27.184 66.935 35.259z" fill="#bcc4e8"/><path d="M405.316 623.957l1.695-.238 50.11-7.07 50.331-59.925 16.604-22.5-66.935-35.259v59.684l-51.805 65.308" fill="#9aaadd"/><path d="M399.023 668.396l103.866 38.43-139.024-102.45-86.593-38.988 71.421 69.675 50.33 33.333" fill="#bab0df"/><path d="M1423.187 924.063l-25.72-116.562-53.294-15.428 19.334 83.684 59.68 48.306" fill="#3359a7"/><path d="M1423.187 924.063v-78.368l-25.72-38.194 25.72 116.562" fill="#577ec8"/><path d="M1110.29 701.608l-14.845-40.799-36.648 50.991-22.661 30.03-43.196 58.19.01.041 30.397 69.191-85.319.01-74.75 90.558 184.43 123.873h148.903l-173.264-214.441 86.944-167.644" fill="#4375b4"/><path d="M1363.507 875.757l-19.334-83.684-48.48-19.604 8.474 55.254 59.34 48.034" fill="#7591d2"/><path d="M1167.864 718.267l.001-.003-.017-.01zM1160.963 731.727l-25.876-32.043-13.69-6.259-25.952-32.616 14.846 40.799-86.944 167.644 173.264 214.441h56.994L1090.437 869.45l70.526-137.722" fill="#3c6cac"/><path d="M1304.167 827.723l-8.474-55.254-51.442-20.802 13.109 38.166 46.807 37.89" fill="#687fc8"/><path d="M1423.187 845.695V794.96l-25.72 12.54z" fill="#4770c0"/><path d="M893.848 869.248zM328.99 820.099L210.144 900.48l-16.504 11.379-14.167 9.304-5.07 3.419-4.637 3.606-3.496 1.878-6.012 4.053-8.473 5.715-30.341 20.458-.021.124-7.27 4.792L0 1042.184v41.51h36.179l336.197-214.425-43.385-49.17M497.455 797.87l-60.344 64.574 118 80-60.967-73.175 3.31-71.398" fill="#517baa"/><path d="M1182.088 652.99l-23.407 1.675 7.122 17.099z" fill="#a0a9dd"/><path d="M1136.627 639.79l22.054 14.875-11.385-87.084z" fill="#9aa3da"/><path d="M1220.268 696.861l64.073 43.494-88.933-126.351 24.86 82.857" fill="#3e5fb5"/><path d="M984.747 693.425H971.89l-36.267 98.647 17.023 13.019 40.282-5.068.011-.003 43.196-58.19-43.524 20.762-7.865-69.167" fill="#a0a8dc"/><path d="M1147.296 567.581l11.385 87.084 23.407-54.478-55.512-54.054 10.05 93.656 10.67-72.208" fill="#848ed0"/><path d="M984.747 693.425l7.865 69.167 43.524-20.763-40.084-48.404h-11.305" fill="#909fd8"/><path d="M1058.797 612.087l17.824 14.429 17.583 14.352 10.69 7.217 15.022-20.233-62.556-78.347-24.032 41.975 25.47 20.607" fill="#a1a5da"/><path d="M1030.348 693.425h-34.296l40.084 48.404 22.661-30.029-10.677-15.97-17.772-2.405" fill="#8698d5"/><path d="M1076.621 626.516l-17.824-14.43-10.677 83.743 10.677 15.971 36.648-50.99-1.241-19.942-17.583-14.352" fill="#3d6dab"/><path d="M1126.576 546.133l-6.66 81.719 16.71 11.937z" fill="#9ca4da"/><path d="M1193.004 738.212l29.436 23.355 34.92 28.266-13.11-38.166-58.469-38.748 7.223 25.293" fill="#7c8ccf"/><path d="M1220.268 696.861l-52.403 1.378 17.916 14.68 58.47 38.748 40.09-11.312-64.073-43.494" fill="#6379c5"/><path d="M1220.147 551.14l-22.85 5.584-24.096 6.259 59.214 73.122-12.268-84.965" fill="#617ac5"/><path d="M1167.867 718.27l25.137 19.942-7.223-25.293-17.916 5.345.002.005" fill="#a0a9dd"/><path d="M1135.087 699.684l-13.69-6.26-25.952-32.615 25.952 32.616 13.69 6.259" fill="#8f91d1"/><path d="M1122.139 659.73l-26.694 1.08 72.403 57.443.017.011 17.916-5.345-17.916-14.68-45.726-38.508" fill="#8f91d1"/><path d="M1182.088 600.187l-23.407 54.478 23.407-1.676-16.285 18.775-7.122-17.099-22.054-14.876-16.711-11.937-15.023 20.233 17.246 11.646 45.726 38.508 52.403-1.378-24.86-82.857-13.32-13.817" fill="#939fd8"/><path d="M532.983 741.395l-25.531-5.54 11.47 8.588 8.509 17.828 8.52 21.526-2.968-42.402" fill="#c8b4df"/><path d="M626.985 774.472l-38.492 94.797h34.984l26.448-79.85-22.94-14.947" fill="#3464b0"/><path d="M535.95 783.797l52.543 85.472.022-62.31z" fill="#ac9bd2"/><path d="M602.561 749.959l15.91-39.448-15.91 12.741-36.966 34.636 19.905 12.779 2.993 21.913.022 14.379-.022 62.31 38.492-94.797-11.106-16.584-13.318-7.93" fill="#3663a9"/><path d="M948.94 667.917l11.841 14.918 11.11 10.59h12.856l-1.76-15.401-34.047-10.107" fill="#3462a8"/><path d="M535.95 783.797l52.565 23.162-.022-14.379-55.51-51.185 2.968 42.402" fill="#baacdc"/><path d="M527.43 762.27l-16.65 17.347-3.328 18.254 15.913 13.101v58.297h65.128l-52.542-85.472-8.52-21.526" fill="#517baa"/><path d="M541.117 740.57l-67.444-21.275-147.337 30.664-2.115 35.597 27.12 18.715 81.626-56.978 4.144 115.151 60.344-64.573 2.966-23.399 7.031-38.617 25.53 5.54 8.135-.824" fill="#467bb0"/><path d="M847.54 743.481v-23.176l-39.227-29.658 16.77-23.255 8.504-10.416-46.738-48.267 10.372 57.278-14.809 8.18-39.965-34.651 5.372 38.508 54.574 42.281.307 22.259-.003 8.517 95.231 43.667-50.388-51.267" fill="#9f96d3"/><path d="M726.287 774.472l-63.775 11.852-12.587 3.095-26.448 79.85h35.586l72.316-.012-5.092-94.785" fill="#4378bc"/><path d="M847.54 720.305l62.177-18.697-11.11-14.244z" fill="#3d70b2"/><path d="M909.717 701.608l51.064-18.773-11.841-14.918-50.333 19.447 11.11 14.244" fill="#3f6eb4"/><path d="M864.57 728.084l-17.03-7.779v23.176z" fill="#3565ab"/><path d="M802.697 751.081l91.151 118.167 4.08-74.5-95.23-43.667" fill="#a7a2d8"/><path d="M689.9 656.844l26.16-17.305 30.97 53.497.789-15.012-5.372-38.508-59.303-39.33-15.46-10.249-.735 37.392 16.195 21.574 6.756 7.941" fill="#a5aadc"/><path d="M718.208 667.917l-58.745 32.731-1.392 30.805z" fill="#4378bc"/><path d="M716.06 639.539l-26.16 17.305-6.756-7.941-16.195-21.574-7.486 73.319 58.745-32.73-60.137 63.535 4.441 54.871 63.775-11.852-10.227-134.933" fill="#3b70ab"/><path d="M773.161 738.192l29.536 12.89.003-8.518-.307-22.259-54.574-42.281-.788 15.012 26.13 45.156" fill="#a7a3d9"/><path d="M1419.92 751.667l3.267 2.75v-19.473l-15.36-14.639 12.093 31.362" fill="#4b65b9"/><path d="M972.248 465.03l-36.624 43.143 48.632-16.248z" fill="#f9dcef"/><path d="M1014.94 558.601l23.995-21.545 2.45-2.2-11.037-11.344-29.641 5.319 14.233 29.77" fill="#d0a0d6"/><path d="M1000.707 528.83l29.641-5.318-36.89-10.948z" fill="#6476c3"/><path d="M993.457 512.564l36.891 10.948-58.1-58.483 12.008 26.896 9.201 20.639" fill="#4b74c3"/><path d="M1014.94 558.601l.056.998.996 17.841 17.336 14.04 24.032-41.975 1.035-30.364-17.01 15.716-2.45 2.199-23.995 21.545" fill="#ceacdb"/><path d="M1119.916 627.852l6.66-81.719-31.13-62.33-38.086 65.702 62.556 78.347" fill="#b4a8db"/><path d="M1182.088 600.187l13.32 13.817 88.933 126.35-51.926-104.249-59.214-73.122-77.756-79.18 31.131 62.33 55.512 54.054" fill="#6476c3"/><path d="M879.095 571.51l-18.278-16.935-1.436 18.516z" fill="#3e5fb5"/><path d="M817.55 514.87l-51.926-48.85-54.265-50.808 102.533 140.35 3.657-40.693M873.083 598.875L859.38 573.09l-39.912-56.415-.54-.508 57.99 93.261.93.752-4.766-11.306" fill="#8d87cc"/><path d="M953.997 513.319l30.259-21.394-48.632 16.248-.01.006-62.531 90.696 80.914-85.556" fill="#f4a9d8"/><path d="M859.381 573.09l1.436-18.515-41.348-37.899z" fill="#4e65b9"/><path d="M711.359 415.212l-31.086 33.933 39.051 36.343z" fill="#fbdef0"/><path d="M935.613 508.179l-56.518 63.33-6.012 27.366z" fill="#e2b0dd"/><path d="M873.083 598.875l6.012-27.366-19.714 1.582z" fill="#9f8ece"/><path d="M1363.413 753.113l-8.133-13.4-51.076-84.076-47.764-76.466 36.295 85.336 70.678 88.606" fill="#3359a7"/><path d="M1284.341 740.355l-19.36-82.547 27.754 6.699-36.295-85.336-36.293-28.031 12.268 84.965 51.926 104.25" fill="#4b74c3"/><path d="M1407.827 720.305l15.36 14.639v-21.736l-24.48-26.57 9.12 33.667" fill="#5972c1"/><path d="M1384.147 767.07l-28.867-27.357 8.133 13.4 4.747 22.4-26.947 3.595-56.872-38.753-40.09 11.312 51.442 20.802 48.48 19.604 53.294 15.428 25.72-12.54-25.72-10.562-13.32-17.328" fill="#4161b6"/><path d="M1316.045 722.79l-31.704 17.565 56.872 38.753z" fill="#5d7fc9"/><path d="M1363.413 753.113l-47.368-30.324 25.168 56.319 26.947-3.595-4.747-22.4" fill="#476abc"/><path d="M1316.045 722.79l-51.064-64.982 19.36 82.547 31.704-17.566" fill="#577bc7"/><path d="M1423.187 760.112v-5.695l-3.267-2.75z" fill="#6b81c9"/><path d="M1394.453 651.427l-20.586 19.098 11.266 7.535z" fill="#f9dcef"/><path d="M1256.44 579.17zM1354.187 695.592l3.56.73 1.173-2.703 1.533-3.564 47.374 30.25-9.12-33.666-13.574-8.579-11.266-7.535-117.427-91.354 94.907 115.842 2.84.579" fill="#7c8fd0"/><path d="M1385.133 678.06l13.574 8.579 24.48 17.59V672.5l-28.734-21.072-9.32 26.633" fill="#7392d3"/><path d="M1423.187 713.208v-8.979l-24.48-17.59z" fill="#7988cd"/><path d="M63.312 873.992l10.02-143.265-59.34 48.254L0 869.27l59.08 8.519 4.232-3.796" fill="#526ba6"/><path d="M274.81 634.987h-.003l-41.942-13.643 54.059 51.637-12.113-37.994" fill="#a9aadd"/><path d="M432.967 747.293l-81.626 56.978 15.711 10.641z" fill="#477eb9"/><path d="M592.193 592.468l23.686-43.924L637 474.834l-64.74 117.634h19.933" fill="#e692cc"/><path d="M770.472 541.312l43.42 14.25-102.533-140.35 7.965 70.276 51.148 55.824" fill="#a29ad5"/><path d="M602.561 749.959l13.318 7.929 51.07-130.559-48.478 83.182-15.91 39.448" fill="#98689e"/><path d="M951.716 528.83l2.281-15.511-33.492 59.772z" fill="#e0a8d9"/><path d="M1057.36 549.505l38.085-65.702-37.05 35.338-1.035 30.364" fill="#f5e1f2"/><path d="M1407.827 720.305l-47.374-30.25-1.533 3.564-1.173 2.702-3.56-.729-2.84-.579-13.8 15.498 13.8-15.498-94.907-115.842 47.764 76.466 51.076 84.076 28.867 27.358 13.32 17.328 25.72 10.562v-34.849l-3.267-8.445-12.093-31.362" fill="#a49fd7"/><path d="M1363.413 753.113l-70.678-88.606-27.754-6.699 51.064 64.981 47.368 30.324M1304.167 827.723l-46.807-37.89-34.92-28.266 200.747 322.126v-159.63l-59.68-48.306-59.34-48.034" fill="#3e5fb5"/><path d="M372.376 869.27L36.179 1083.692H432.07l123.04-141.249-182.735-73.175" fill="#4378bc"/><path d="M731.379 869.257l-72.316.012h-35.586l-68.366 73.175 207.305 141.25L863.279 959.82l-131.9-90.563" fill="#3f6bab"/><path d="M992.95 800.061l-.02-.038-40.283 5.068-17.023-13.019v.001l-37.696 2.675-4.08 74.5-91.15-118.167-29.537-12.889-27.764-14.188-29.337-84.465 10.227 134.933 5.092 94.785 131.9 90.563 74.749-90.557 85.319-.011-30.398-69.19" fill="#517baa"/><path d="M523.365 869.27v-58.298l-15.913-13.101 3.328-18.254 16.65-17.346-8.509-17.828-11.469-8.588-7.03 38.617-2.967 23.399-3.311 71.398 60.967 73.175 68.366-73.175H523.365" fill="#487ca8"/><path d="M432.07 1083.693h330.346L555.111 942.444z" fill="#4375b4"/><path d="M762.416 1083.693h285.292L863.278 959.82z" fill="#3b60a7"/><path d="M1222.44 761.567l-29.436-23.355-25.137-19.943-.002-.005-.001.003-.016-.014-72.403-57.444 25.952 32.615 13.69 6.26 25.876 32.043-70.526 137.722 163.168 214.244h169.582L1222.44 761.567" fill="#396aab"/><path d="M909.717 701.608l-62.177 18.697 17.03 7.779-17.03 15.397 50.388 51.267 37.696-2.675v-.001l36.267-98.647-11.11-10.59-51.064 18.773" fill="#3b60a7"/><path d="M372.376 869.27l182.735 73.174-118-80z" fill="#4a7eb1"/><path d="M0 869.27v61.497l59.08-52.979z" fill="#5067a7"/><path d="M122.093 821.283l-58.781 52.709-4.232 3.796L0 930.767l112.275-37.247 9.818-72.237" fill="#4070ab"/><path d="M133.863 886.36l14.886-88.617-26.656 23.54-9.818 72.237 21.588-7.16M121.422 960.417l.02-.124-7.29 4.916z" fill="#4375b4"/><path d="M150.524 880.832l6.023-1.999-7.798-81.09z" fill="#3c6cac"/><path d="M176.661 776.187l-.96 96.292 34.476-11.438 21.919-67.345 8.095-29.768-63.53 12.259" fill="#526ba6"/><path d="M179.472 921.164l14.167-9.304.102-.319z" fill="#5067a7"/><path d="M193.639 911.86l16.504-11.379-16.402 11.06zM227.256 855.376l4.84-61.68-21.919 67.345zM169.765 928.19l4.638-3.607-8.134 5.484zM176.661 776.187l-3.717-36.215-12.805 1.423-11.39 56.348 7.798 81.09 19.154-6.354.96-96.292" fill="#4375b4"/><path d="M232.096 793.696l-4.84 61.68 101.735-35.277-43.214-26.403h-53.681" fill="#3f6da8"/><path d="M101.39 973.621L0 930.767v111.417l114.151-76.975-12.761 8.412" fill="#3359a7"/><path d="M227.256 855.376l-17.079 5.665-34.476 11.438-19.154 6.354-6.023 1.999-16.661 5.528-21.588 7.16L0 930.767l101.39 42.854L328.99 820.1l-101.734 35.277" fill="#3e5fb5"/><path d="M747.03 693.036l-30.97-53.497 29.337 84.465 27.764 14.188-26.13-45.156" fill="#3157a5"/><path d="M1104.893 648.085l-10.689-7.217 1.241 19.941 26.694-1.078-17.246-11.646" fill="#7c8ccf"/><path d="M510 635.167l49.265-62.09 4.07 33.887z" fill="#e184c5"/><path d="M112.275 695.661l47.864 45.734-47.864-26.934z" fill="#989dd6"/></svg>