<svg id="c43d3552-19d9-46e9-9056-2b0c56399f46" data-name="Layer 1" xmlns="http://www.w3.org/2000/svg" viewBox="0 0 634.69 127.72"><defs><style>.\32 b5566d3-c83b-470c-aada-c8b2db85d66f{fill:#2b5284;}</style></defs><path class="2b5566d3-c83b-470c-aada-c8b2db85d66f" d="M532.76 0h-47.9l-23.21 47.49L438.27 0h-47.9v24.48a43.71 43.71 0 0 0-7.56-11C374.41 4.53 362.16 0 346.4 0h-71.48v111.69L231.91 0h-51.27l-38.25 99.32V0h-47.9L71.28 47.49 47.89 0H0v127.72h51.13V93l6.78 13.8h26.57L91.26 93v34.77h96c-.61-.25-1.23-.44-1.43-.54.47.24-1.09-.46-1.53-.57a40.19 40.19 0 0 1-18-10.16 7.94 7.94 0 0 1-2-2.82c-.54-1.39.14-2.2 1.93-2.21a15.93 15.93 0 0 1 5 .93 26.89 26.89 0 0 1 10.43 6.27 1.27 1.27 0 0 0 .67.36 10.49 10.49 0 0 0-.73-2.39 25.3 25.3 0 0 1 .84-16c1-2.68 2.31-5.27 3.51-7.89q2.22-4.86 4.49-9.7c1.07-2.27 2.17-4.54 3.27-6.82.46.2.38.6.43.89.6 3.51 2.37 6.63 4.43 9.66 4.76 7 11.23 12.72 18.32 18a72 72 0 0 1 7.21 5.8 12.67 12.67 0 0 1 4 9c0 1.3.08 1.31 1.64 1.3 2.23 0 4.37.23 5.9 1.8a5.2 5.2 0 0 1 1.65 3.69l-.42 1.38h89.2V96.5a2.17 2.17 0 0 1 1.12.33 5.13 5.13 0 0 1 1.29 2.17l12.66 28.75H441.5V93l6.79 13.8h26.56l6.78-13.8v34.77h51.13v-89.6h19.55v89.55h51.13V38.17h31.25V0zm-303.7 112.28a33.84 33.84 0 0 0-3.59-4.33 48.56 48.56 0 0 0-5.43-4.38 87.11 87.11 0 0 1-12.48-10.5 56.38 56.38 0 0 1-8.34-10.37 23.3 23.3 0 0 1-3.56-11.44c-.11-3 1.46-5.56 3.59-7.88a2.23 2.23 0 0 0 .65-1.59 4.45 4.45 0 0 1 .63-2.4 4.35 4.35 0 0 1 4.74-1.52 7 7 0 0 0 3.43-.14 32.7 32.7 0 0 1 11.42-.88 13.3 13.3 0 0 1 5.47 2 1 1 0 0 1 .32 1.49 1 1 0 0 0 0 1.19c.92 1.62.39 3.05-1.39 4a17.57 17.57 0 0 0-9.38 13.16c-.8 5 .71 9.6 3.19 14.06a35.7 35.7 0 0 0 3.55 5.14 20.14 20.14 0 0 0 3.2 2.59 14.59 14.59 0 0 1 4.4 5.16 6.73 6.73 0 0 1-.42 6.64zm105.72-56.84h-8.73V41h9.49c2.89 0 5 .58 6.2 1.71s1.77 3 1.77 5.69c0 3.5-1.04 7.04-8.73 7.04zm55.59 62.5l-11.73-27a15.81 15.81 0 0 0-3.37-5.18A55.68 55.68 0 0 0 389 71c.49-.77.94-1.54 1.37-2.33z"/></svg>