<?xml version="1.0" standalone="no"?>
<!DOCTYPE svg PUBLIC "-//W3C//DTD SVG 20010904//EN"
 "http://www.w3.org/TR/2001/REC-SVG-20010904/DTD/svg10.dtd">
<svg version="1.0" xmlns="http://www.w3.org/2000/svg"
 width="258.000000pt" height="258.000000pt" viewBox="0 0 258.000000 258.000000"
 preserveAspectRatio="xMidYMid meet">
<metadata>
Created by potrace 1.11, written by Peter Selinger 2001-2013
</metadata>
<g transform="translate(0.000000,258.000000) scale(0.100000,-0.100000)"
fill="#000000" stroke="none">
<path d="M0 1290 l0 -1290 1290 0 1290 0 0 1290 0 1290 -1290 0 -1290 0 0
-1290z m1710 584 c29 -12 40 -22 40 -38 0 -11 3 -31 6 -43 5 -18 -5 -29 -56
-66 -106 -78 -143 -143 -144 -258 -1 -68 3 -83 37 -152 24 -48 56 -94 88 -124
27 -26 70 -67 93 -90 49 -46 64 -89 46 -132 l-11 -29 -46 49 c-25 26 -84 75
-131 107 -238 163 -390 340 -423 491 -15 69 -6 109 36 164 19 25 35 54 35 65
0 35 36 56 93 54 29 -1 68 3 87 7 62 16 206 12 250 -5z"/>
</g>
</svg>
